<?xml version="1.0" encoding="UTF-8"?>
<svg width="21px" height="19px" viewBox="0 0 21 19" version="1.1" xmlns="http://www.w3.org/2000/svg" xmlns:xlink="http://www.w3.org/1999/xlink">
    <!-- Generator: Sketch 48.2 (47327) - http://www.bohemiancoding.com/sketch -->
    <title>01-home</title>
    <desc>Created with Sketch.</desc>
    <defs></defs>
    <g id="Assets" stroke="none" stroke-width="1" fill="none" fill-rule="evenodd" transform="translate(-115.000000, -133.000000)">
        <g id="Group-2" transform="translate(64.000000, 100.000000)" fill="#B8B9B9">
            <path d="M69.9372599,40.2908451 L68.9903969,40.2908451 C68.4677286,40.2908451 68.0435339,40.7574592 68.0435339,41.3323944 L68.0435339,49.6647887 L66.1498079,49.6647887 L66.1498079,41.3323944 C66.1498079,40.7574592 65.7256133,40.2908451 65.2029449,40.2908451 L57.628041,40.2908451 C57.1053726,40.2908451 56.681178,40.7574592 56.681178,41.3323944 L56.681178,49.6647887 L54.787452,49.6647887 L54.787452,41.3323944 C54.787452,40.7574592 54.3632574,40.2908451 53.840589,40.2908451 L52.893726,40.2908451 L52.893726,39.8940148 L61.415493,35.207043 L69.9372599,39.8940148 L69.9372599,40.2908451 Z M58.574904,48.6232394 L64.2560819,48.6232394 L64.2560819,49.6647887 L58.574904,49.6647887 L58.574904,48.6232394 Z M58.574904,45.4985915 L64.2560819,45.4985915 L64.2560819,46.5401408 L58.574904,46.5401408 L58.574904,45.4985915 Z M64.2560819,43.415493 L58.574904,43.415493 L58.574904,42.3739437 L64.2560819,42.3739437 L64.2560819,43.415493 Z M71.3073707,38.3171092 L61.8387407,33.1093627 C61.5726722,32.9635458 61.2583137,32.9635458 60.9922452,33.1093627 L51.5236152,38.3171092 C51.2026287,38.4941725 51,38.8545486 51,39.2492958 L51,41.3323944 C51,41.9073296 51.4241946,42.3739437 51.946863,42.3739437 L52.893726,42.3739437 L52.893726,50.706338 C52.893726,51.2812732 53.3179206,51.7478873 53.840589,51.7478873 L68.9903969,51.7478873 C69.5130653,51.7478873 69.9372599,51.2812732 69.9372599,50.706338 L69.9372599,42.3739437 L70.8841229,42.3739437 C71.4067913,42.3739437 71.8309859,41.9073296 71.8309859,41.3323944 L71.8309859,39.2492958 C71.8309859,38.8545486 71.6283572,38.4941725 71.3073707,38.3171092 L71.3073707,38.3171092 Z" id="01-home"></path>
        </g>
    </g>
</svg>