<?xml version="1.0" encoding="UTF-8"?>
<svg width="20px" height="22px" viewBox="0 0 20 22" version="1.1" xmlns="http://www.w3.org/2000/svg" xmlns:xlink="http://www.w3.org/1999/xlink">
    <!-- Generator: Sketch 48.2 (47327) - http://www.bohemiancoding.com/sketch -->
    <title>08-Insights</title>
    <desc>Created with Sketch.</desc>
    <defs></defs>
    <g id="Assets" stroke="none" stroke-width="1" fill="none" fill-rule="evenodd" transform="translate(-744.000000, -132.000000)">
        <g id="Group-2" transform="translate(64.000000, 100.000000)" fill="#B8B9B9" fill-rule="nonzero">
            <path d="M692.305089,52.7917795 C691.638964,53.4579046 690.744452,53.831651 689.802817,53.831651 C688.861182,53.831651 687.96667,53.4579046 687.300545,52.7917795 C686.92902,52.4202546 686.645882,51.972254 686.471674,51.4811526 L682.517004,51.4811526 C681.840603,51.4811526 681.203346,51.2146986 680.739652,50.7415005 C680.266926,50.2687743 680,49.6319309 680,48.9641486 C680,48.2963663 680.266926,47.6595228 680.739652,47.1867967 C680.984114,46.9423348 681.27716,46.7498282 681.60063,46.6203775 C681.781389,45.9889785 681.940966,45.2522065 682.064573,44.4780758 C682.245956,43.3758241 682.350498,42.2343642 682.350498,41.3707938 C682.350498,39.3838621 683.135398,37.5052381 684.539991,36.1006452 C685.071636,35.569 685.68205,35.1180846 686.346485,34.7662171 C686.49435,34.1134303 686.824494,33.515922 687.300545,33.0398715 C687.96667,32.3737464 688.861182,32 689.802817,32 C690.744452,32 691.638964,32.3737464 692.305089,33.0398715 C692.781139,33.515922 693.111284,34.1134303 693.259149,34.7662171 C693.923584,35.1180846 694.533998,35.569 695.065643,36.1006452 C696.470236,37.5052381 697.255135,39.3838621 697.255135,41.3707938 C697.255135,42.2345001 697.359707,43.3760003 697.541462,44.480548 C697.664723,45.252551 697.824276,45.9890957 698.005003,46.6203774 C698.328474,46.749828 698.62152,46.9423347 698.865982,47.1867967 C699.338708,47.6595228 699.605634,48.2963663 699.605634,48.9641486 C699.605634,49.6315154 699.338997,50.268488 698.869715,50.7377297 C698.402574,51.2144039 697.765453,51.4811526 697.08863,51.4811526 L693.13396,51.4811526 C692.959751,51.972254 692.676614,52.4202546 692.305089,52.7917795 Z M682.517004,49.3917145 L697.08863,49.3917145 C697.196685,49.3917145 697.301912,49.3452186 697.388426,49.2639445 C697.468111,49.1842589 697.516196,49.0741711 697.516196,48.9641486 C697.516196,48.854126 697.468111,48.7440383 697.383389,48.6591611 C697.310442,48.5816548 697.204462,48.5365826 697.08863,48.5365826 C696.711012,48.5365826 696.368053,48.2993695 696.241611,47.9394704 C695.928575,47.0715095 695.66403,45.9788218 695.476413,44.8218487 C695.276472,43.6079191 695.165697,42.3518118 695.165697,41.3707938 C695.165697,39.930857 694.591871,38.5820879 693.588087,37.5855235 C692.584278,36.5817143 691.235569,36.0079134 689.802817,36.0079134 C688.370065,36.0079134 687.021356,36.5817143 686.016936,37.586132 C685.013763,38.5820879 684.439936,39.930857 684.439936,41.3707938 C684.439936,42.3518118 684.329162,43.6079191 684.12919,44.8220347 C683.936353,45.9870899 683.686548,47.0351456 683.39267,47.8591887 C683.29091,48.2560536 682.935187,48.5365826 682.517004,48.5365826 C682.408949,48.5365826 682.303722,48.5830785 682.217208,48.6643526 C682.137522,48.7440383 682.089438,48.854126 682.089438,48.9641486 C682.089438,49.0741711 682.137522,49.1842589 682.212017,49.258908 C682.303722,49.3452186 682.408949,49.3917145 682.517004,49.3917145 Z M688.428832,34.6296119 C688.882982,34.532826 689.340886,34.4842123 689.802817,34.4842123 C690.264748,34.4842123 690.722652,34.532826 691.176801,34.6296119 L691.291597,34.6540764 L691.22649,34.5564162 C691.151319,34.4436598 691.095571,34.3729289 691.03218,34.3095132 C690.697596,33.9828698 690.263358,33.8029084 689.802817,33.8029084 C689.342672,33.8029084 688.908318,33.9825936 688.57792,34.3051016 C688.510297,34.3727003 688.454583,34.4432573 688.379144,34.5564162 L688.314037,34.6540764 L688.428832,34.6296119 Z M691.413524,50.9752433 L691.443368,50.9080932 L688.176979,50.9080932 L688.206824,50.9752433 C688.295839,51.1755281 688.422842,51.3646373 688.570329,51.5197235 C688.910705,51.8522327 689.346691,52.0336009 689.810174,52.0336009 C690.272441,52.0336009 690.708797,51.8530868 691.039659,51.5301572 L691.045422,51.524323 C691.198308,51.3634415 691.32479,51.1748949 691.413524,50.9752433 Z" id="08-Insights"></path>
        </g>
    </g>
</svg>