<?xml version="1.0" encoding="UTF-8"?>
<svg width="23px" height="19px" viewBox="0 0 23 19" version="1.1" xmlns="http://www.w3.org/2000/svg" xmlns:xlink="http://www.w3.org/1999/xlink">
    <!-- Generator: Sketch 48.2 (47327) - http://www.bohemiancoding.com/sketch -->
    <title>02-list</title>
    <desc>Created with Sketch.</desc>
    <defs></defs>
    <g id="Assets" stroke="none" stroke-width="1" fill="none" fill-rule="evenodd" transform="translate(-238.000000, -133.000000)">
        <g id="Group-2" transform="translate(64.000000, 100.000000)" fill="#B8B9B9" fill-rule="nonzero">
            <path d="M181.465263,36.0642676 C180.806108,36.1759357 180.181232,35.7321097 180.069564,35.0729546 C179.957896,34.4137994 180.401722,33.7889237 181.060877,33.6772556 L184.038887,33.1727481 C185.860884,32.8640818 187.731455,33.023945 189.474654,33.6373009 L189.734907,33.7288726 C191.226613,34.2537394 192.838269,34.3360731 194.375697,33.965954 L195.505887,33.6938731 C196.155865,33.5373981 196.809624,33.937461 196.966099,34.5874386 C197.122574,35.2374162 196.722511,35.8911751 196.072533,36.0476501 L194.942343,36.319731 C192.950984,36.799129 190.863482,36.692486 188.931344,36.0126506 L188.671092,35.9210789 C187.31527,35.4440243 185.860382,35.3196863 184.443273,35.5597601 L181.465263,36.0642676 Z M181.465263,42.7220818 C180.806108,42.8337499 180.181232,42.389924 180.069564,41.7307688 C179.957896,41.0716137 180.401722,40.446738 181.060877,40.3350699 L184.038887,39.8305624 C185.860884,39.5218961 187.731455,39.6817592 189.474654,40.2951152 L189.734907,40.3866868 C191.226613,40.9115536 192.838269,40.9938873 194.375697,40.6237683 L195.505887,40.3516873 C196.155865,40.1952123 196.809624,40.5952752 196.966099,41.2452528 C197.122574,41.8952304 196.722511,42.5489894 196.072533,42.7054644 L194.942343,42.9775453 C192.950984,43.4569432 190.863482,43.3503002 188.931344,42.6704649 L188.671092,42.5788932 C187.31527,42.1018386 185.860382,41.9775006 184.443273,42.2175743 L181.465263,42.7220818 Z M181.465263,49.3798961 C180.806108,49.4915642 180.181232,49.0477382 180.069564,48.3885831 C179.957896,47.7294279 180.401722,47.1045522 181.060877,46.9928841 L184.038887,46.4883766 C185.860884,46.1797103 187.731455,46.3395735 189.474654,46.9529295 L189.734907,47.0445011 C191.226613,47.5693679 192.838269,47.6517016 194.375697,47.2815825 L195.505887,47.0095016 C196.155865,46.8530266 196.809624,47.2530895 196.966099,47.9030671 C197.122574,48.5530447 196.722511,49.2068036 196.072533,49.3632786 L194.942343,49.6353596 C192.950984,50.1147575 190.863482,50.0081145 188.931344,49.3282791 L188.671092,49.2367075 C187.31527,48.7596528 185.860382,48.6353148 184.443273,48.8753886 L181.465263,49.3798961 Z M175.815768,51.1576752 C174.812947,51.1576752 174,50.3447284 174,49.3419077 C174,48.339087 174.812947,47.5261402 175.815768,47.5261402 C176.818588,47.5261402 177.631535,48.339087 177.631535,49.3419077 C177.631535,50.3447284 176.818588,51.1576752 175.815768,51.1576752 Z M175.815768,43.8946051 C174.812947,43.8946051 174,43.0816583 174,42.0788376 C174,41.0760169 174.812947,40.2630701 175.815768,40.2630701 C176.818588,40.2630701 177.631535,41.0760169 177.631535,42.0788376 C177.631535,43.0816583 176.818588,43.8946051 175.815768,43.8946051 Z M175.815768,36.631535 C174.812947,36.631535 174,35.8185882 174,34.8157675 C174,33.8129468 174.812947,33 175.815768,33 C176.818588,33 177.631535,33.8129468 177.631535,34.8157675 C177.631535,35.8185882 176.818588,36.631535 175.815768,36.631535 Z" id="02-list"></path>
        </g>
    </g>
</svg>