<?xml version="1.0" encoding="utf-8"?>
<!-- Generator: Adobe Illustrator 22.0.1, SVG Export Plug-In . SVG Version: 6.00 Build 0)  -->
<svg version="1.1" id="Layer_1" xmlns="http://www.w3.org/2000/svg" xmlns:xlink="http://www.w3.org/1999/xlink" x="0px" y="0px"
	 viewBox="0 0 607.9 146.9" style="enable-background:new 0 0 607.9 146.9;" xml:space="preserve">
<style type="text/css">
	.st0{fill:#0075AC;}
</style>
<g>
	<g>
		<path class="st0" d="M216.5,127.9c-7.8,2.2-13.8,1.1-10.4-22.3c3.4-23.5,11.6-33.3,0.6-41.3c-14.5-10.6-35.2,16.2-56.4,34.1
			c-21.2,17.9-16.8,10.1-14.5,2.2c0-0.1,0.1-0.2,0.1-0.3C139,91.4,192,24,178.2,7.9c-0.3-0.3-0.6-0.7-0.9-1
			c-0.1-0.1-0.2-0.2-0.3-0.3c-0.2-0.2-0.4-0.4-0.6-0.6c-0.1-0.1-0.2-0.2-0.3-0.3c-0.2-0.2-0.4-0.4-0.6-0.5c-0.1-0.1-0.2-0.2-0.3-0.3
			c-0.2-0.2-0.5-0.4-0.7-0.6c-0.1-0.1-0.1-0.1-0.2-0.2c-0.3-0.2-0.6-0.5-0.9-0.7c0,0-0.1,0-0.1-0.1c-0.3-0.2-0.6-0.4-0.9-0.6
			c-0.1,0-0.2-0.1-0.2-0.1c-0.2-0.1-0.5-0.3-0.7-0.4c-0.1,0-0.2-0.1-0.2-0.1c-0.3-0.1-0.5-0.3-0.8-0.4c-0.1,0-0.1-0.1-0.2-0.1
			c-1-0.5-2-0.8-3-1.1c0,0-0.1,0-0.1,0c-0.3-0.1-0.6-0.2-0.9-0.2c0,0-0.1,0-0.1,0c-14.3-2.8-30.6,11-41.6,19.8
			c-19,15.1-55.9,60.3-81.5,83.8c-25.7,23.5-43,7.8-43,7.8c0.1,0.5,0.3,1,0.4,1.5c15.9,51.7,50.8,29.5,66.6,15.5
			c20-17.7,38.4-51.4,56.4-72.9c4.8-5.7,8.5-8.9,11.3-10.3c4.7-2.4,7,0.1,7.7,4.1c0,0,0,0,0,0c0.1,0.5,0.1,1,0.2,1.5c0,0,0,0,0,0.1
			c0,0.5,0.1,1,0.1,1.6c0,0,0,0.1,0,0.1c0,0.5,0,1.1-0.1,1.6c0,0,0,0.1,0,0.1c0,0.3,0,0.5-0.1,0.8c0,0,0,0,0,0.1
			c0,0.2-0.1,0.5-0.1,0.7c0,0,0,0.1,0,0.1c0,0.3-0.1,0.5-0.1,0.8c0,0,0,0.1,0,0.1c0,0.2-0.1,0.5-0.1,0.7c0,0,0,0.1,0,0.1
			c0,0.2-0.1,0.5-0.2,0.7c0,0,0,0.1,0,0.1c-0.1,0.2-0.1,0.4-0.2,0.6c0,0,0,0.1,0,0.1c-0.1,0.2-0.1,0.5-0.2,0.7c0,0.1,0,0.1,0,0.2
			c-0.1,0.2-0.1,0.4-0.2,0.6c0,0,0,0,0,0.1c-0.1,0.2-0.2,0.4-0.2,0.6c0,0,0,0.1-0.1,0.1c-0.1,0.2-0.2,0.4-0.2,0.6
			c-3.9,8.9-16.8,29-25.7,54.2c-0.4,1.2-0.8,2.3-1.1,3.3c-7,22.2,1.1,26.1,12.8,13.4c6.7-7.3,15.6-14.5,35.7-30.2
			c20.1-15.6,10.1,4.5,8.9,14c-2.7,22.6,12.3,30.2,25.7,29c10.7-0.9,21.7-13.6,21.6-17.5C218.7,127.9,218.1,127.5,216.5,127.9"/>
		<path class="st0" d="M252.9,63.2c5.8,0,6.5,0.4,6.9,1.6c0.2,0.7,0.4,1.9,0.5,3.2c3.4-3.3,8.5-5.8,14-5.8c6.2,0,11.4,2.2,15,6.8
			c4-4,9.7-6.8,15.8-6.8c6.3,0,11.4,2.2,14.5,5.6c3.5,3.8,5.2,8.7,5.2,16.2v30c0,1.6-0.7,2.2-8.1,2.2h-0.5c-8,0-8.2-0.6-8.2-2.2
			V87.7c0-6.6-0.3-8.6-1.7-10c-1.1-1.3-3-2-5.4-2c-2.2,0-3.9,0.5-5,1.3c-1.3,1-2.1,2.4-2.3,4.6c-0.2,2.3-0.2,5.9-0.2,9.5V114
			c0,1.6-0.7,2.2-8.1,2.2H285c-8,0-8.2-0.6-8.2-2.2V87.7c0-6.6-0.5-8.6-1.7-10c-1-1.3-2.9-2-5.3-2c-2.3,0-3.9,0.5-5.1,1.3
			c-1.3,1-2.1,2.4-2.3,4.6c-0.2,2.3-0.2,5.9-0.2,9.5V114c0,1.6-0.7,2.2-8.1,2.2h-0.4c-8.1,0-8.3-0.6-8.3-2.2V87.1
			c0-7.6-0.3-16-0.7-21.3c-0.2-2,0.3-2.6,7.6-2.6H252.9z"/>
		<g>
			<path class="st0" d="M356.7,43.9c12.2,0,20.5,1.3,26.3,6.8c3.8,3.8,5.8,9.3,5.8,16.3c0,6.7-2.4,12.8-6.8,17.4
				c-4.3,4.3-12,6.9-21.7,6.9c-1.2,0-2.8,0-4.1-0.1V114c0,1.7-1.8,2.2-8.4,2.2h-1.1c-6.9,0-8.2-0.5-8.2-2.2V46.2
				c0-2,0.8-2.3,6.1-2.3H356.7z M356,78.2c0.9,0.1,2.6,0.1,3.4,0.1c4.3,0,7-0.9,9-3.2c1.7-1.9,2.2-4.6,2.2-8.1c0-2.9-0.7-5.2-2-6.8
				c-1.9-2.3-4.6-3.3-10.2-3.3H356V78.2z"/>
			<path class="st0" d="M403.1,63.2c7.4,0,8.1,0.6,8.1,2.2v26.3c0,7,0.4,8.5,1.7,10c1.1,1.3,2.9,2,5.6,2c2.6,0,4.8-0.6,6.1-1.7
				c1.1-1,1.6-2.2,1.8-5.1c0.1-2,0.2-5.1,0.2-8.7V65.4c0-1.6,0.1-2.2,8.2-2.2h0.5c7.4,0,8.1,0.6,8.1,2.2v26.9c0,7.6,0.3,16,0.6,21.3
				c0.2,2-0.2,2.6-7.5,2.6H436c-5.9,0-6.8-0.3-7.1-1.7c-0.2-0.8-0.4-2-0.5-3c-3.1,3.5-8,5.7-13.8,5.7c-6.6,0-11.8-2.2-15-5.6
				c-3.5-3.8-5.1-8.7-5.1-16.2v-30c0-1.6,0.2-2.2,8.3-2.2H403.1z"/>
			<path class="st0" d="M464.4,39.9c6.8,0,7.8,0.5,8.1,1.8c0.6,3.2,0.9,16.4,0.9,29.3v30.9c0,1.8,0.6,2.6,2.4,2.6h1.4
				c1.6,0,1.7,0.6,1.7,5.1v0.9c0,3.9-0.4,4.6-1.6,5.1c-1.5,0.6-3.7,1-7.6,1c-4.2,0-7.6-1.2-9.5-3.1c-2.7-2.6-3.6-6.1-3.6-10.8V68.9
				c0-9.2-0.6-23.5-0.8-27c-0.1-1.5,0.1-2,8.1-2H464.4z"/>
			<path class="st0" d="M488.7,104.2c2.5-4.1,3.4-4.6,4.9-3.7c3.7,2.5,8.8,4.2,12.7,4.2c5,0,7.1-1.6,7.1-3.7c0-2.4-4.1-3.5-8-4.6
				c-7.9-2.1-18.3-5.3-18.3-17c0-10.7,9.6-17.3,22.2-17.3c7.1,0,13.4,1.9,17.7,4.9c1.1,0.8,1.2,1.7-0.9,5.5l-1,1.8
				c-2.1,3.5-3.2,3.8-4.5,3.1c-3.6-2.1-7.1-3.1-10.8-3.1c-2.3,0-4,0.4-5.2,1.1c-0.9,0.6-1.4,1.5-1.4,2.6c0,2.4,4,3.5,8.2,4.7
				c8,2.3,18.2,5.3,18.2,16.4c0,4.6-1.9,9.2-5.4,12.5c-3.8,3.6-9.7,5.4-17.6,5.4c-7.9,0-15.4-2.5-19.9-5.9c-1.2-1-1-2.1,0.9-5.3
				L488.7,104.2z"/>
			<path class="st0" d="M554,95c1.1,6.2,5.4,9.2,11.9,9.2c5,0,9.4-1.1,14.9-3.4c1.1-0.5,2.2,0,3.4,3.6l0.8,2.4
				c1.2,3.7,1.1,4.6-0.2,5.3c-6.5,3.5-13.2,5-20.8,5c-16.7,0-27.5-9.9-27.5-27c0-16.5,10-28,26.5-28c16.3,0,24.6,11.3,24.6,27
				c0,5.2-0.4,5.8-2.3,5.8H554z M570.8,84.9c-0.2-5.5-2.5-10.2-8.1-10.2c-4.8,0-8.3,3.5-8.9,10.2H570.8z"/>
		</g>
		<g>
			<path class="st0" d="M593.8,58.2h-2.8v-1h6.7v1H595v7.9h-1.2V58.2z"/>
			<path class="st0" d="M606.5,62.2c-0.1-1.2-0.1-2.7-0.1-3.8h0c-0.3,1-0.7,2.1-1.1,3.4l-1.6,4.3h-0.9l-1.5-4.2
				c-0.4-1.2-0.8-2.4-1.1-3.4h0c0,1.1-0.1,2.6-0.2,3.9l-0.2,3.8h-1.1l0.6-8.8h1.5l1.6,4.3c0.4,1.1,0.7,2.1,0.9,3h0
				c0.2-0.9,0.6-1.9,1-3l1.6-4.3h1.5l0.6,8.8h-1.1L606.5,62.2z"/>
		</g>
	</g>
	<path class="st0" d="M247.5,132.8c1.5,0,1.7,0.1,1.8,0.4c0.1,0.2,0.1,0.5,0.1,0.8c0.9-0.9,2.2-1.5,3.7-1.5c1.6,0,3,0.6,3.9,1.8
		c1.1-1.1,2.5-1.8,4.1-1.8c1.7,0,3,0.6,3.8,1.5c0.9,1,1.4,2.3,1.4,4.2v7.9c0,0.4-0.2,0.6-2.1,0.6h-0.1c-2.1,0-2.1-0.2-2.1-0.6v-6.9
		c0-1.7-0.1-2.3-0.4-2.6c-0.3-0.3-0.8-0.5-1.4-0.5c-0.6,0-1,0.1-1.3,0.3c-0.4,0.3-0.5,0.6-0.6,1.2c-0.1,0.6-0.1,1.5-0.1,2.5v6
		c0,0.4-0.2,0.6-2.1,0.6h-0.1c-2.1,0-2.1-0.2-2.1-0.6v-6.9c0-1.7-0.1-2.3-0.4-2.6c-0.3-0.3-0.8-0.5-1.4-0.5c-0.6,0-1,0.1-1.3,0.3
		c-0.4,0.3-0.5,0.6-0.6,1.2c-0.1,0.6-0.1,1.5-0.1,2.5v6c0,0.4-0.2,0.6-2.1,0.6h-0.1c-2.1,0-2.2-0.2-2.2-0.6v-7c0-2-0.1-4.2-0.2-5.6
		c-0.1-0.5,0.1-0.7,2-0.7H247.5z"/>
	<path class="st0" d="M288.9,139.5c0,4.8-2.5,7.5-7.2,7.5c-4.1,0-6.7-2.4-6.7-6.9c0-4.8,2.5-7.5,7.2-7.5
		C286.4,132.5,288.9,134.9,288.9,139.5 M279.6,139.8c0,2.3,0.7,3.7,2.3,3.7c1.8,0,2.6-1.5,2.6-3.9c0-2.3-0.7-3.7-2.3-3.7
		C280.3,135.9,279.6,137.4,279.6,139.8"/>
	<path class="st0" d="M300.1,126.7c1.9,0,2.1,0.2,2.1,0.6v6.2c0.8-0.6,1.9-0.9,3.1-0.9c3.5,0,5.8,2.6,5.8,7c0,2.5-0.7,4.4-2.1,5.7
		c-1.2,1.1-3.2,1.7-5.5,1.7c-1.9,0-4.2-0.4-5.2-1.1c-0.4-0.3-0.5-0.5-0.5-0.8v-17.7c0-0.4,0.1-0.6,2.2-0.6H300.1z M302.2,143.4
		c0.4,0.1,0.8,0.2,1.4,0.2c0.9,0,1.7-0.3,2.2-0.9c0.5-0.6,0.8-1.7,0.8-3.2c0-1.5-0.3-2.4-0.8-2.9c-0.4-0.5-1-0.7-1.7-0.7
		c-0.8,0-1.3,0.2-1.6,0.5c-0.2,0.2-0.3,0.5-0.3,1.3V143.4z"/>
	<path class="st0" d="M322.1,126.4c1.5,0,2.6,1.2,2.6,2.5c0,1.3-1.1,2.4-2.6,2.4c-1.5,0-2.6-1.2-2.6-2.4
		C319.5,127.5,320.6,126.4,322.1,126.4 M322.3,132.8c1.9,0,2.1,0.2,2.1,0.6v12.7c0,0.4-0.2,0.6-2.1,0.6h-0.1c-2.1,0-2.2-0.2-2.2-0.6
		v-12.7c0-0.4,0.1-0.6,2.2-0.6H322.3z"/>
	<path class="st0" d="M336.2,126.7c1.8,0,2,0.1,2.1,0.5c0.2,0.8,0.2,4.3,0.2,7.7v8.1c0,0.5,0.2,0.7,0.6,0.7h0.4
		c0.4,0,0.4,0.2,0.4,1.3v0.2c0,1-0.1,1.2-0.4,1.3c-0.4,0.2-1,0.3-2,0.3c-1.1,0-2-0.3-2.5-0.8c-0.7-0.7-0.9-1.6-0.9-2.8v-8.8
		c0-2.4-0.2-6.1-0.2-7.1c0-0.4,0-0.5,2.1-0.5H336.2z"/>
	<path class="st0" d="M352.7,141.1c0.3,1.6,1.4,2.4,3.1,2.4c1.3,0,2.5-0.3,3.9-0.9c0.3-0.1,0.6,0,0.9,0.9l0.2,0.6
		c0.3,1,0.3,1.2-0.1,1.4c-1.7,0.9-3.5,1.3-5.4,1.3c-4.4,0-7.2-2.6-7.2-7.1c0-4.3,2.6-7.3,6.9-7.3c4.3,0,6.4,3,6.4,7.1
		c0,1.4-0.1,1.5-0.6,1.5H352.7z M357.1,138.5c-0.1-1.4-0.7-2.7-2.1-2.7c-1.2,0-2.2,0.9-2.3,2.7H357.1z"/>
</g>
</svg>
