<?xml version="1.0" encoding="UTF-8"?>
<svg width="26px" height="24px" viewBox="0 0 26 24" version="1.1" xmlns="http://www.w3.org/2000/svg" xmlns:xlink="http://www.w3.org/1999/xlink">
    <!-- Generator: Sketch 48.2 (47327) - http://www.bohemiancoding.com/sketch -->
    <title>05-programs</title>
    <desc>Created with Sketch.</desc>
    <defs></defs>
    <g id="Assets" stroke="none" stroke-width="1" fill="none" fill-rule="evenodd" transform="translate(-364.000000, -131.000000)">
        <g id="Group-2" transform="translate(64.000000, 100.000000)" fill="#B8B9B9">
            <path d="M316.082867,46.0103758 C315.919897,46.0103758 315.754783,45.9728498 315.603607,45.8977979 C315.240142,45.7166013 315.010697,45.3445584 315.010697,44.9382061 L315.010697,42.7938667 L313.938528,42.7938667 L313.938528,40.6495273 L316.082867,40.6495273 C316.674705,40.6495273 317.155037,41.1298593 317.155037,41.721697 L317.155037,42.7938667 L319.728244,40.8639612 C319.913729,40.7245791 320.139957,40.6495273 320.371546,40.6495273 L323.588055,40.6495273 L323.588055,33.1443394 L312.866358,33.1443394 L312.866358,36.3608485 L310.722019,36.3608485 L310.722019,33.1443394 C310.722019,31.960664 311.683755,31 312.866358,31 L323.588055,31 C324.770658,31 325.732394,31.960664 325.732394,33.1443394 L325.732394,40.6495273 C325.732394,41.8321304 324.770658,42.7938667 323.588055,42.7938667 L320.728578,42.7938667 L316.726169,45.7959418 C316.536395,45.9374682 316.310167,46.0103758 316.082867,46.0103758 Z M308.577679,46.0103758 C306.212473,46.0103758 304.289,44.0869033 304.289,41.721697 C304.289,39.3564906 306.212473,37.4330182 308.577679,37.4330182 C310.942886,37.4330182 312.866358,39.3564906 312.866358,41.721697 C312.866358,44.0869033 310.942886,46.0103758 308.577679,46.0103758 Z M308.577679,39.5773576 C307.395076,39.5773576 306.43334,40.5380216 306.43334,41.721697 C306.43334,42.9043001 307.395076,43.8660364 308.577679,43.8660364 C309.760282,43.8660364 310.722019,42.9043001 310.722019,41.721697 C310.722019,40.5380216 309.760282,39.5773576 308.577679,39.5773576 Z M317.154715,54.5877333 L300,54.5877333 L300,53.5155636 C300,49.7275881 303.527438,47.0825454 308.577358,47.0825454 C313.628349,47.0825454 317.154715,49.7275881 317.154715,53.5155636 L317.154715,54.5877333 Z M302.314814,52.4433939 L314.840973,52.4433939 C314.199815,50.5049111 311.802444,49.2268848 308.577358,49.2268848 C305.352271,49.2268848 302.955972,50.5049111 302.314814,52.4433939 Z" id="05-programs"></path>
        </g>
    </g>
</svg>