<?xml version="1.0" encoding="UTF-8"?>
<svg width="22px" height="22px" viewBox="0 0 22 22" version="1.1" xmlns="http://www.w3.org/2000/svg" xmlns:xlink="http://www.w3.org/1999/xlink">
    <!-- Generator: Sketch 48.2 (47327) - http://www.bohemiancoding.com/sketch -->
    <title>03-program-builder</title>
    <desc>Created with Sketch.</desc>
    <defs></defs>
    <g id="Assets" stroke="none" stroke-width="1" fill="none" fill-rule="evenodd" transform="translate(-619.000000, -132.000000)">
        <g id="Group-2" transform="translate(64.000000, 100.000000)" fill="#B8B9B9" fill-rule="nonzero">
            <path d="M567.875,32.3278321 L567.875,34.6278321 L559.55,34.6278321 C558.334877,34.6278321 557.34,35.6413051 557.34,36.8778321 L557.339876,45.1314662 C557.318682,46.2971398 558.200576,46.7278321 559.51,46.7278321 L559.75,46.7278321 C560.164214,46.7278321 560.5,47.0636185 560.5,47.4778321 L560.5,49.5985316 L563.489442,46.9193147 C563.627017,46.7960164 563.805259,46.7278321 563.99,46.7278321 L572.03,46.7278321 C573.320768,46.7278321 574.24,46.2857587 574.24,45.1178321 L574.24,41.9528321 L576.5,41.9528321 L576.5,45.1178321 C576.5,47.5440063 574.596224,49.0278321 571.99,49.0278321 L564.558338,49.0278321 L559.452417,53.6346777 C558.969988,54.0699523 558.2,53.7276029 558.2,53.0778321 L558.2,48.8824225 C556.288507,48.4723165 555,47.0921175 555,45.1178321 L555,36.8778321 C555,34.3784025 557.020852,32.3278321 559.51,32.3278321 L567.875,32.3278321 Z M573.060773,32.1793774 C573.238062,31.9672402 573.553859,31.9392454 573.765702,32.1168868 L576.840948,34.6956459 C577.052151,34.8727513 577.080193,35.1873747 576.90364,35.3990401 L571.07885,42.382246 C570.995649,42.4819948 570.876894,42.5454497 570.747728,42.559177 L567.865225,42.8655181 C567.582634,42.8955508 567.331861,42.6843197 567.313437,42.4007353 L567.124563,39.4936895 C567.116028,39.3623223 567.159645,39.2328893 567.245948,39.1334816 L567.328297,39.0386579 L567.61024,38.7081834 L571.364472,34.2150199 L571.626839,33.8951627 L573.060773,32.1793774 Z M569.506157,41.4549517 L568.346633,40.4783163 L568.423396,41.5661892 L569.506157,41.4549517 Z M573.736785,36.9235805 L572.117728,35.5626255 L569.031839,39.2522051 L570.650895,40.61316 L573.736785,36.9235805 Z M574.666361,35.799261 L575.175676,35.1867644 L573.556628,33.8258166 L573.047313,34.4383132 L574.666361,35.799261 Z" id="03-program-builder"></path>
        </g>
    </g>
</svg>