<?xml version="1.0" encoding="UTF-8"?>
<svg width="22px" height="23px" viewBox="0 0 22 23" version="1.1" xmlns="http://www.w3.org/2000/svg" xmlns:xlink="http://www.w3.org/1999/xlink">
    <!-- Generator: Sketch 48.2 (47327) - http://www.bohemiancoding.com/sketch -->
    <title>08-settings</title>
    <desc>Created with Sketch.</desc>
    <defs></defs>
    <g id="Assets" stroke="none" stroke-width="1" fill="none" fill-rule="evenodd" transform="translate(-984.000000, -131.000000)">
        <g id="Group-2" transform="translate(64.000000, 100.000000)" fill="#B8B9B9" fill-rule="nonzero">
            <path d="M924.174837,47.6148519 C924.780875,47.2939851 925.642296,47.3053838 926.239689,47.6416659 L928.151265,48.7177236 C928.75588,49.0580714 929.206387,49.7958774 929.224882,50.4859765 L929.240578,51.071591 C929.249527,51.4055216 929.548939,51.6895491 929.913719,51.689328 L931.529414,51.6883488 C931.892255,51.6881289 932.19479,51.4000478 932.203761,51.0653082 L932.219342,50.48395 C932.237852,49.7933396 932.688457,49.0562285 933.293445,48.7160951 L935.205235,47.6412579 C935.802458,47.30549 936.664137,47.2944303 937.269505,47.6149426 L937.79369,47.8924728 C938.120151,48.0653177 938.538225,47.9505355 938.71616,47.6500474 L939.524,46.2858082 C939.692627,46.0010398 939.59282,45.6194422 939.292646,45.4401163 L938.784043,45.1362725 C938.188321,44.7803838 937.758305,44.0312767 937.757923,43.340604 L937.756732,41.1889187 C937.75635,40.4980141 938.186478,39.7480737 938.782104,39.3922423 L939.290693,39.0884067 C939.59366,38.9074122 939.69248,38.5291453 939.522545,38.2417555 L938.715567,36.8770136 C938.539074,36.5785323 938.118783,36.462763 937.797342,36.6329499 L937.269333,36.9125044 C936.663296,37.2333713 935.801874,37.2219725 935.204482,36.8856905 L933.292906,35.8096328 C932.68829,35.4692849 932.237784,34.7314789 932.219288,34.0413798 L932.203593,33.4557653 C932.194643,33.1218348 931.895231,32.8378072 931.530451,32.8380283 L929.914756,32.8390076 C929.551915,32.8392275 929.249381,33.1273085 929.240409,33.4620482 L929.224828,34.0434063 C929.206319,34.7340167 928.755713,35.4711278 928.150725,35.8112613 L926.238936,36.8860985 C925.641713,37.2218663 924.780034,37.2329261 924.174666,36.9124137 L923.65048,36.6348835 C923.324019,36.4620386 922.905946,36.5768209 922.72801,36.877309 L921.92017,38.2415481 C921.751544,38.5263166 921.851351,38.9079142 922.151524,39.0872401 L922.660128,39.3910839 C923.255849,39.7469725 923.685865,40.4960797 923.686248,41.1867524 L923.687438,43.3384377 C923.687821,44.0293422 923.257692,44.7792826 922.662067,45.135114 L922.153477,45.4389496 C921.850511,45.6199441 921.751691,45.998211 921.921626,46.2856008 L922.728603,47.6503427 C922.905097,47.9488241 923.325387,48.0645933 923.646828,47.8944065 L924.174837,47.6148519 Z M921.14647,48.585865 L920.339492,47.2211231 C919.651839,46.0581793 920.043666,44.5583237 921.210828,43.8610519 L921.719418,43.5572163 C921.7623,43.5315984 921.849433,43.3796803 921.84941,43.3394549 L921.84822,41.1877695 C921.848197,41.1469176 921.760969,40.9949628 921.717479,40.9689816 L921.208876,40.6651378 C920.044539,39.9695537 919.651243,38.4658482 920.338626,37.3050302 L921.146466,35.9407911 C921.827036,34.7914798 923.321772,34.3810995 924.51052,35.0104824 L925.034705,35.2880126 C925.087424,35.3159245 925.285777,35.3133786 925.338168,35.2839232 L927.249958,34.209086 C927.294935,34.183799 927.386386,34.0342008 927.38746,33.994162 L927.403041,33.4128038 C927.438935,32.0735381 928.564447,31.0017975 929.913642,31.0009797 L931.529337,31.0000005 C932.880311,30.9991817 934.005036,32.0661168 934.040961,33.406521 L934.056656,33.9921355 C934.05773,34.0321908 934.149599,34.1826473 934.194526,34.2079375 L936.106102,35.2839952 C936.158603,35.3135486 936.356293,35.3161645 936.409294,35.2881033 L936.937302,35.0085488 C938.121792,34.3814202 939.619097,34.7938536 940.2977,35.9414914 L941.104678,37.3062333 C941.792332,38.469177 941.400504,39.9690326 940.233342,40.6663044 L939.724752,40.9701401 C939.68187,40.995758 939.594738,41.1476761 939.59476,41.1879015 L939.595951,43.3395868 C939.595973,43.3804387 939.683201,43.5323935 939.726691,43.5583747 L940.235295,43.8622185 C941.399632,44.5578026 941.792927,46.0615081 941.105544,47.2223261 L940.297704,48.5865653 C939.617135,49.7358765 938.122398,50.1462569 936.93365,49.5168739 L936.409465,49.2393438 C936.356746,49.2114319 936.158394,49.2139778 936.106002,49.2434332 L934.194213,50.3182704 C934.149235,50.3435574 934.057784,50.4931555 934.056711,50.5331944 L934.041129,51.1145526 C934.005235,52.4538183 932.879724,53.5255589 931.530528,53.5263766 L929.914833,53.5273559 C928.563859,53.5281747 927.439134,52.4612396 927.403209,51.1208354 L927.387514,50.5352209 C927.38644,50.4951656 927.294571,50.344709 927.249644,50.3194188 L925.338068,49.2433611 C925.285568,49.2138077 925.087877,49.2111918 925.034877,49.2392531 L924.506868,49.5188076 C923.322378,50.1459362 921.825073,49.7335027 921.14647,48.585865 Z M925.897923,39.5249572 C927.439925,36.9209011 930.840727,36.03244 933.501575,37.530275 C936.176002,39.0357542 937.096349,42.3846665 935.546248,45.0023991 C934.004245,47.6064553 930.603443,48.4949163 927.942596,46.9970814 C925.268169,45.4916021 924.347822,42.1426899 925.897923,39.5249572 Z M933.964703,44.0658813 C934.98679,42.3398329 934.380687,40.1343741 932.599954,39.1319702 C930.805641,38.1219221 928.509652,38.7217503 927.479467,40.4614751 C926.45738,42.1875234 927.063484,44.3929822 928.844217,45.3953861 C930.638529,46.4054343 932.934518,45.8056061 933.964703,44.0658813 Z" id="08-settings"></path>
        </g>
    </g>
</svg>